<?xml version="1.0" standalone="no"?>
<!DOCTYPE svg PUBLIC "-//W3C//DTD SVG 1.1//EN" "http://www.w3.org/Graphics/SVG/1.1/DTD/svg11.dtd" >
<svg xmlns="http://www.w3.org/2000/svg">
<metadata>Generated by IcoMoon</metadata>
<defs>
<font id="icon" horiz-adv-x="1024">
<font-face units-per-em="1024" ascent="960" descent="-64" />
<missing-glyph horiz-adv-x="1024" />
<glyph unicode="&#x20;" horiz-adv-x="512" d="" />
<glyph unicode="&#xe900;" d="M512-64c282.049 0 512 229.951 512 512s-229.951 512-512 512-512-229.951-512-512 229.951-512 512-512z" />
<glyph unicode="&#xe901;" d="M233.544 415.663c1.796 5.389 1.796 8.982 3.593 14.372 10.779 43.116 46.709 73.656 89.825 79.046 10.779 1.796 21.558 0 32.337 0 17.965 0 35.93 0 52.098 0 0 0 1.796 0 3.593 0 0-12.575 3.593-25.151 8.982-37.726s12.575-21.558 21.558-32.337c-66.47-25.151-93.418-75.453-88.028-145.516-1.796 0-1.796 0-1.796 0-37.726 1.796-75.453 8.982-111.382 21.558-3.593 1.796-7.186 1.796-8.982 1.796v98.807z" />
<glyph unicode="&#xe902;" d="M790.456 320.449c-35.93-17.965-75.453-23.354-114.975-25.151 0 1.796 0 3.593 0 5.389 0 16.168 0 30.54-3.593 46.709-5.389 26.947-19.761 50.302-39.523 68.267-12.575 10.779-28.744 19.761-44.912 25.151 3.593 3.593 5.389 7.186 8.982 10.779 12.575 16.168 19.761 34.133 21.558 53.895 0 3.593 0 5.389 3.593 5.389 23.354 0 48.505 0 71.86 0 26.947-1.796 50.302-12.575 68.267-32.337 16.168-16.168 23.354-35.93 26.947-57.488 0-1.796 0-1.796 1.796-3.593v-97.011z" />
<glyph unicode="&#xe903;" d="M515.593 424.646c14.372 0 28.744 0 43.116 0 23.354-1.796 44.912-10.779 62.877-26.947 16.168-14.372 26.947-34.133 32.337-55.691 1.796-7.186 1.796-16.168 1.796-23.354 0-26.947 0-52.098 0-79.046 0-3.593-1.796-5.389-3.593-7.186-28.744-12.575-57.488-19.761-88.028-21.558-50.302-5.389-98.807 0-147.312 12.575-12.575 3.593-23.354 7.186-35.93 8.982-3.593 0-3.593 1.796-3.593 5.389 0 28.744 0 55.691 0 84.435 1.796 41.319 19.761 71.86 55.691 91.621 16.168 8.982 34.133 12.575 52.098 12.575 8.982 0 19.761 0 30.54-1.796 0 0 0 0 0 0z" />
<glyph unicode="&#xe904;" d="M515.593 595.312c44.912 0 80.842-35.93 80.842-82.639 0-44.912-37.726-82.639-82.639-80.842-44.912 0-82.639 37.726-80.842 82.639s37.726 80.842 82.639 80.842z" />
<glyph unicode="&#xe905;" d="M377.263 516.267c-39.523-1.796-71.86 23.354-82.639 57.488-10.779 35.93 3.593 73.656 35.93 93.418 41.319 25.151 95.214 10.779 116.772-34.133 5.389-10.779 8.982-23.354 8.982-35.93 0-1.796-1.796-5.389-1.796-7.186-17.965-16.168-30.54-35.93-35.93-59.284 0-1.796-1.796-3.593-3.593-5.389-14.372-5.389-26.947-8.982-37.726-8.982z" />
<glyph unicode="&#xe906;" d="M650.33 679.747c39.523 0 73.656-26.947 80.842-66.47s-14.372-79.046-52.098-91.621c-19.761-7.186-39.523-7.186-59.284 1.796-3.593 1.796-3.593 3.593-3.593 5.389-3.593 21.558-12.575 39.523-26.947 53.895-5.389 5.389-10.779 8.982-16.168 14.372-1.796 1.796-3.593 3.593-3.593 5.389 1.796 26.947 14.372 48.505 37.726 64.674 14.372 8.982 28.744 12.575 43.116 12.575z" />
<glyph unicode="&#xe907;" d="M512-64c282.049 0 512 229.951 512 512s-229.951 512-512 512-512-229.951-512-512 229.951-512 512-512z" />
<glyph unicode="&#xe908;" d="M650.33 744.421c0-1.796 0-3.593 0-5.389 0-32.337 0-64.674 0-97.011 0-3.593-1.796-5.389-5.389-5.389-17.965 0-35.93 0-52.098 0-5.389 0-12.575-1.796-17.965-1.796-10.779-1.796-19.761-10.779-19.761-23.354 0-23.354 0-44.912-1.796-68.267 0-3.593 1.796-3.593 5.389-3.593 28.744 0 57.488 0 86.232 0h7.186c-3.593-35.93-7.186-71.86-10.779-107.789h-86.232c0-1.796 0-5.389 0-7.186 0-100.604 0-201.207 0-301.811 0-1.796 0-3.593 0-5.389h-116.772c0 8.982 0 17.965 0 28.744 0 93.418 0 185.039 0 278.456 0 1.796 0 5.389 0 7.186h-79.046c0 1.796 0 3.593 0 5.389 0 32.337 0 64.674 0 97.011 0 3.593 1.796 5.389 5.389 5.389 21.558 0 44.912 0 66.47 0 5.389 0 5.389 1.796 5.389 5.389 0 28.744 0 57.488 1.796 88.028 0 21.558 5.389 41.319 14.372 61.081 10.779 21.558 26.947 35.93 50.302 43.116 12.575 3.593 25.151 5.389 37.726 8.982 1.796 0 3.593 0 5.389 1.796h104.196z" />
<glyph unicode="&#xe909;" d="M512-64c282.049 0 512 229.951 512 512s-229.951 512-512 512-512-229.951-512-512 229.951-512 512-512z" />
<glyph unicode="&#xe90a;" d="M601.825 196.491c14.372 0 30.54 1.796 44.912 1.796 68.267 3.593 111.382 44.912 113.179 113.179 1.796 86.232 1.796 174.26 0 260.491-1.796 68.267-44.912 111.382-113.179 111.382-88.028 1.796-177.853 1.796-265.881 0-68.267-1.796-111.382-43.116-113.179-111.382-1.796-86.232-1.796-174.26 0-260.491 1.796-68.267 44.912-109.586 113.179-111.382 43.116-3.593 190.428-3.593 220.968-3.593zM210.189 557.586c1.796 14.372 3.593 28.744 5.389 43.116 14.372 79.046 70.063 132.94 150.905 136.533 97.011 3.593 194.021 3.593 291.032 0 88.028-3.593 150.905-68.267 152.702-154.498 3.593-93.418 3.593-185.039 0-278.456-3.593-88.028-66.47-152.702-152.702-154.498-97.011-3.593-194.021-3.593-291.032 0-88.028 3.593-147.312 68.267-154.498 156.295 0 7.186-1.796 14.372-3.593 23.354v228.154z" />
<glyph unicode="&#xe90b;" d="M612.604 440.814c0 55.691-44.912 100.604-100.604 98.807s-98.807-43.116-98.807-98.807c0-55.691 44.912-100.604 100.604-100.604s100.604 46.709 98.807 100.604zM513.796 288.112c-86.232 0-156.295 68.267-156.295 152.702s68.267 152.702 154.498 154.498c86.232 0 156.295-68.267 156.295-152.702s-68.267-154.498-154.498-154.498z" />
<glyph unicode="&#xe90c;" d="M639.551 600.702c0 19.761 16.168 35.93 35.93 35.93s35.93-16.168 35.93-35.93c0-19.761-16.168-35.93-35.93-35.93-21.558 0-35.93 16.168-35.93 35.93z" />
<glyph unicode="&#xe90d;" d="M512-64c282.049 0 512 229.951 512 512s-229.951 512-512 512-512-229.951-512-512 229.951-512 512-512z" />
<glyph unicode="&#xe90e;" d="M538.947 473.151c0-14.372 12.575-26.947 26.947-26.947s26.947 12.575 26.947 26.947c0 14.372-12.575 26.947-26.947 26.947s-26.947-12.575-26.947-26.947zM458.105 446.204c14.372 0 26.947 12.575 26.947 26.947s-12.575 26.947-26.947 26.947c-14.372 0-26.947-12.575-26.947-26.947s12.575-26.947 26.947-26.947zM529.965 270.147c3.593 0 7.186 0 10.779 1.796 12.575 1.796 25.151 5.389 35.93 14.372 8.982 7.186 19.761 14.372 28.744 19.761 10.779 7.186 14.372 17.965 14.372 30.54 0 3.593-1.796 8.982-3.593 12.575-7.186 12.575-16.168 25.151-23.354 39.523-10.779 17.965-25.151 26.947-44.912 26.947-21.558 0-43.116 0-64.674 0-3.593 0-7.186 0-8.982 0-16.168-3.593-28.744-12.575-37.726-26.947s-16.168-28.744-25.151-41.319c-1.796-3.593-3.593-8.982-3.593-14.372 0-10.779 3.593-17.965 12.575-23.354 7.186-5.389 14.372-10.779 23.354-16.168 14.372-8.982 28.744-16.168 44.912-17.965 3.593 0 5.389 0 8.982 0v1.796c0 12.575 0 26.947 0 39.523 0 1.796 0 1.796-1.796 3.593-5.389 7.186-12.575 14.372-17.965 21.558-3.593 5.389-5.389 10.779-1.796 16.168 1.796 5.389 7.186 7.186 12.575 7.186 17.965 0 35.93 0 53.895 0 1.796 0 1.796 0 3.593 0 10.779-1.796 14.372-16.168 7.186-23.354s-12.575-14.372-19.761-21.558c0 0-1.796-1.796-1.796-1.796 0-12.575 0-26.947 0-39.523v-8.982zM610.807 622.26c1.796 3.593 5.389 5.389 7.186 8.982 5.389 5.389 12.575 10.779 21.558 12.575s17.965 1.796 26.947-3.593c10.779-5.389 19.761-10.779 26.947-19.761 5.389-7.186 10.779-14.372 14.372-21.558 5.389-14.372 1.796-26.947-7.186-37.726-5.389-7.186-12.575-12.575-21.558-16.168 0 0-1.796 0-1.796 0s0 0 0 0 0-1.796 0-1.796c17.965-32.337 35.93-66.47 53.895-98.807 7.186-12.575 10.779-25.151 12.575-39.523 1.796-25.151-5.389-46.709-23.354-66.47-5.389-5.389-10.779-10.779-16.168-16.168-16.168-14.372-34.133-30.54-50.302-44.912s-34.133-25.151-55.691-32.337c-16.168-5.389-34.133-8.982-52.098-8.982-23.354 0-46.709 0-70.063 0-41.319 0-79.046 14.372-111.382 43.116-17.965 16.168-37.726 32.337-55.691 50.302-14.372 14.372-25.151 30.54-28.744 50.302-3.593 21.558-1.796 41.319 8.982 61.081 16.168 30.54 32.337 61.081 50.302 89.825 1.796 3.593 5.389 8.982 7.186 12.575-1.796 1.796-5.389 1.796-7.186 3.593-12.575 7.186-21.558 17.965-23.354 32.337-1.796 8.982 0 17.965 3.593 26.947 8.982 17.965 23.354 30.54 41.319 37.726 16.168 5.389 32.337 1.796 43.116-10.779 1.796-1.796 3.593-5.389 7.186-8.982 0 0 1.796-1.796 1.796 0 8.982 3.593 17.965 5.389 28.744 5.389 46.709 0 93.418 0 140.126 0 10.779-1.796 19.761-3.593 28.744-7.186z" />
<glyph unicode="&#xe90f;" d="M512-64c282.049 0 512 229.951 512 512s-229.951 512-512 512-512-229.951-512-512 229.951-512 512-512z" />
<glyph unicode="&#xe910;" d="M341.333 230.625c-5.389 1.796-10.779 1.796-16.168 3.593-16.168 3.593-35.93 23.354-30.54 48.505 3.593 12.575 8.982 21.558 17.965 32.337 1.796 3.593 5.389 5.389 8.982 8.982 1.796 1.796 1.796 3.593 1.796 3.593 0 8.982 1.796 16.168 7.186 23.354 14.372 16.168 26.947 32.337 41.319 50.302 16.168 17.965 30.54 37.726 46.709 55.691 8.982 12.575 19.761 23.354 28.744 35.93 10.779 12.575 21.558 26.947 32.337 39.523 1.796 1.796 3.593 3.593 5.389 7.186 14.372-34.133 39.523-57.488 71.86-71.86-3.593-1.796-5.389-3.593-7.186-7.186-25.151-21.558-52.098-43.116-77.249-62.877-19.761-16.168-39.523-32.337-59.284-48.505-16.168-12.575-30.54-25.151-46.709-37.726-7.186-5.389-16.168-8.982-25.151-7.186-1.796 0-3.593 0-5.389-1.796-5.389-5.389-10.779-12.575-14.372-17.965-5.389-7.186-3.593-14.372 3.593-19.761 1.796-1.796 3.593-1.796 5.389-1.796 16.168-5.389 32.337-1.796 46.709 7.186s26.947 19.761 39.523 30.54c14.372 12.575 28.744 25.151 46.709 34.133 26.947 16.168 55.691 17.965 86.232 8.982 26.947-7.186 50.302-19.761 71.86-37.726 16.168-14.372 30.54-28.744 44.912-46.709 3.593-5.389 3.593-10.779 1.796-16.168-3.593-3.593-8.982-7.186-14.372-5.389-3.593 0-7.186 1.796-8.982 5.389-16.168 19.761-34.133 37.726-53.895 52.098-23.354 16.168-46.709 25.151-75.453 25.151-16.168 0-28.744-5.389-43.116-14.372-19.761-12.575-34.133-28.744-52.098-41.319-19.761-16.168-39.523-28.744-62.877-30.54 0 0 0 0-1.796 0h-14.372z" />
<glyph unicode="&#xe911;" d="M589.249 665.375c5.389-1.796 12.575-1.796 17.965-3.593 16.168-5.389 30.54-12.575 41.319-25.151 12.575-10.779 21.558-25.151 26.947-39.523 8.982-25.151 10.779-48.505-1.796-73.656-1.796-3.593-3.593-5.389-7.186-3.593-23.354 5.389-44.912 14.372-64.674 28.744s-34.133 32.337-46.709 52.098c-8.982 16.168-14.372 32.337-17.965 50.302 0 1.796 0 3.593 1.796 5.389 8.982 5.389 17.965 7.186 26.947 8.982 1.796 0 1.796 0 3.593 0h19.761z" />
<glyph unicode="&#xe912;" d="M515.593 629.446c21.558-68.267 66.47-113.179 134.737-134.737-8.982-5.389-17.965-8.982-28.744-10.779-28.744-3.593-53.895 3.593-75.453 21.558-17.965 12.575-30.54 30.54-37.726 52.098-7.186 23.354-7.186 44.912 3.593 68.267 1.796 0 1.796 1.796 3.593 3.593z" />
<glyph unicode="&#xe913;" d="M512-64c282.049 0 512 229.951 512 512s-229.951 512-512 512-512-229.951-512-512 229.951-512 512-512z" />
<glyph unicode="&#xe914;" d="M697.039 404.884c-57.488-30.54-109.586-64.674-131.144-131.144-1.796 3.593-1.796 5.389-1.796 7.186-16.168 59.284-30.54 118.568-44.912 177.853-5.389 21.558-10.779 43.116-14.372 64.674 0 3.593 0 7.186 0 10.779 5.389 21.558 16.168 41.319 30.54 59.284 25.151 32.337 57.488 59.284 91.621 82.639 1.796 0 1.796 1.796 3.593 1.796 21.558-89.825 43.116-181.446 66.47-273.067z" />
<glyph unicode="&#xe915;" d="M384.449 329.432c-23.354 91.621-44.912 183.242-68.267 276.66 8.982 0 16.168-1.796 23.354-1.796 43.116-8.982 84.435-23.354 122.161-46.709 16.168-8.982 25.151-23.354 28.744-41.319 19.761-80.842 39.523-159.888 59.284-240.73 0-1.796 0-1.796 1.796-3.593-48.505 44.912-104.196 57.488-167.074 57.488z" />
<glyph unicode="&#xe916;" d="M743.747 381.53c-21.558 86.232-43.116 172.463-64.674 260.491 7.186 1.796 14.372 3.593 21.558 5.389 23.354-95.214 46.709-190.428 71.86-287.439-64.674-12.575-123.958-34.133-177.853-71.86 10.779 16.168 25.151 30.54 41.319 41.319s34.133 21.558 52.098 28.744c16.168 10.779 35.93 16.168 55.691 23.354z" />
<glyph unicode="&#xe917;" d="M256.898 537.825c7.186 1.796 14.372 3.593 21.558 5.389 21.558-86.232 43.116-172.463 64.674-260.491 26.947 5.389 55.691 5.389 82.639 3.593s53.895-5.389 80.842-14.372c-61.081 3.593-120.365-1.796-179.649-21.558-23.354 95.214-46.709 190.428-70.063 287.439z" />
<glyph unicode="&#xe918;" d="M375.467 315.060c50.302 5.389 95.214-5.389 138.33-30.54-52.098 12.575-105.993 17.965-159.888 12.575-23.354 91.621-44.912 183.242-68.267 276.66 8.982 1.796 16.168 1.796 25.151 3.593 21.558-88.028 43.116-174.26 64.674-262.288z" />
<glyph unicode="&#xe919;" d="M659.312 665.375c23.354-91.621 44.912-183.242 68.267-274.863-17.965-7.186-37.726-14.372-53.895-23.354-17.965-8.982-34.133-17.965-50.302-26.947 14.372 10.779 28.744 21.558 43.116 30.54s30.54 17.965 46.709 26.947c0 1.796-1.796 5.389-1.796 8.982-19.761 80.842-39.523 161.684-61.081 242.526-3.593 10.779-3.593 10.779 8.982 16.168z" />
<glyph unicode="&#xe91a;" d="M512-64c282.049 0 512 229.951 512 512s-229.951 512-512 512-512-229.951-512-512 229.951-512 512-512z" />
<glyph unicode="&#xe91b;" d="M273.067 180.323c-23.354 98.807-46.709 199.411-68.267 298.218 14.372-7.186 30.54-14.372 44.912-19.761 70.063-30.54 138.33-61.081 210.189-84.435 17.965-5.389 37.726-10.779 55.691-14.372 10.779-1.796 21.558 0 30.54 7.186 21.558 14.372 37.726 30.54 55.691 48.505 57.488 57.488 109.586 120.365 161.684 183.242 3.593 5.389 7.186 8.982 12.575 14.372 23.354-97.011 44.912-195.818 68.267-292.828 0 0 0 0 0-1.796-1.796-28.744-14.372-44.912-43.116-52.098-66.47-16.168-132.94-30.54-199.411-46.709-91.621-21.558-181.446-41.319-273.067-62.877-21.558-7.186-39.523 1.796-55.691 23.354 1.796 0 1.796 0 0 0z" />
<glyph unicode="&#xe91c;" d="M188.632 552.196c-1.796 10.779-5.389 21.558-7.186 32.337 0 1.796 0 5.389 0 7.186 3.593 21.558 17.965 35.93 41.319 41.319 158.091 35.93 316.182 73.656 472.477 109.586 1.796 0 3.593 0 5.389 1.796 19.761 3.593 41.319-5.389 52.098-23.354 1.796-1.796 1.796-3.593 3.593-7.186 1.796-10.779 5.389-21.558 7.186-30.54-1.796-1.796-1.796-1.796-3.593-3.593-25.151-30.54-48.505-61.081-73.656-89.825-37.726-44.912-75.453-89.825-118.568-129.347-10.779-10.779-23.354-19.761-35.93-28.744-7.186-5.389-16.168-7.186-23.354-5.389-8.982 1.796-17.965 3.593-26.947 5.389-39.523 10.779-79.046 26.947-116.772 43.116-61.081 25.151-118.568 52.098-176.056 77.249z" />
<glyph unicode="&#xe91d;" d="M512-64c282.049 0 512 229.951 512 512s-229.951 512-512 512-512-229.951-512-512 229.951-512 512-512z" />
<glyph unicode="&#xe920;" d="M504.814 394.105c-17.965 0-34.133 0-52.098 0-5.389 0-7.186 1.796-7.186 7.186 0 34.133 0 68.267 0 104.196 0 5.389 1.796 7.186 7.186 7.186 34.133 0 68.267 0 104.196 0 5.389 0 7.186-1.796 7.186-7.186 0-34.133 0-70.063 0-104.196 0-5.389-1.796-7.186-7.186-7.186-17.965 0-34.133 0-52.098 0 0 0 0 0 0 0z" />
<glyph unicode="&#xe921;" d="M447.326 368.954h113.179c-1.796-12.575-1.796-25.151-3.593-37.726s-3.593-25.151-5.389-37.726c0-3.593-1.796-7.186-7.186-5.389-25.151 0-52.098 0-77.249 0-1.796 0-5.389 1.796-5.389 3.593-5.389 25.151-10.779 50.302-14.372 77.249z" />
<glyph unicode="&#xe922;" d="M589.249 395.902v113.179c12.575-1.796 26.947-1.796 39.523-3.593s25.151-3.593 37.726-5.389c3.593 0 5.389-1.796 5.389-7.186 0-25.151 0-52.098 0-77.249 0-1.796-1.796-5.389-5.389-5.389-25.151-7.186-52.098-10.779-77.249-14.372z" />
<glyph unicode="&#xe923;" d="M420.379 507.284v-111.382c-17.965 1.796-34.133 3.593-52.098 7.186-7.186 1.796-16.168 1.796-23.354 3.593-1.796 0-5.389 3.593-5.389 5.389 0 26.947 0 52.098 0 79.046 0 1.796 1.796 5.389 3.593 5.389 25.151 5.389 50.302 7.186 77.249 10.779 0 0 0 0 0 0z" />
<glyph unicode="&#xe924;" d="M562.302 536.028h-113.179c1.796 12.575 1.796 25.151 3.593 37.726s3.593 25.151 5.389 37.726c0 3.593 1.796 5.389 7.186 5.389 25.151 0 52.098 0 77.249 0 1.796 0 5.389-1.796 5.389-3.593 5.389-25.151 10.779-50.302 14.372-77.249z" />
<glyph unicode="&#xe925;" d="M423.972 534.232c-26.947-3.593-52.098-7.186-80.842-10.779 3.593 16.168 7.186 32.337 12.575 46.709 10.779 28.744 1.796 21.558 30.54 30.54 12.575 3.593 25.151 7.186 37.726 10.779 3.593 0 5.389 1.796 8.982 1.796-1.796-14.372-3.593-26.947-5.389-39.523s-3.593-25.151-3.593-39.523z" />
<glyph unicode="&#xe926;" d="M668.295 523.453c-28.744 3.593-53.895 7.186-80.842 10.779-3.593 26.947-7.186 52.098-10.779 80.842 19.761-5.389 37.726-10.779 55.691-16.168 10.779-3.593 16.168-8.982 17.965-17.965 5.389-19.761 12.575-37.726 17.965-57.488z" />
<glyph unicode="&#xe927;" d="M576.674 288.112c3.593 28.744 7.186 55.691 10.779 80.842 26.947 3.593 52.098 7.186 79.046 10.779-3.593-23.354-10.779-44.912-19.761-66.47 0-1.796-1.796-1.796-3.593-3.593-21.558-7.186-43.116-14.372-66.47-21.558z" />
<glyph unicode="&#xe928;" d="M432.954 288.112c-23.354 7.186-44.912 14.372-66.47 21.558-1.796 0-3.593 3.593-5.389 5.389-7.186 21.558-14.372 43.116-21.558 66.47 28.744-3.593 55.691-7.186 80.842-10.779 5.389-26.947 8.982-52.098 12.575-82.639z" />
<glyph unicode="&#xe929;" d="M400.618 210.863c-62.877 26.947-109.586 73.656-136.533 136.533 23.354-23.354 48.505-41.319 79.046-55.691 1.796-1.796 3.593-3.593 5.389-5.389 12.575-26.947 30.54-52.098 52.098-75.453z" />
<glyph unicode="&#xe92a;" d="M400.618 692.323c-23.354-23.354-41.319-48.505-55.691-79.046 0-1.796-3.593-3.593-5.389-3.593-28.744-14.372-53.895-30.54-77.249-53.895 0 0 0 0-1.796 0 32.337 64.674 77.249 109.586 140.126 136.533z" />
<glyph unicode="&#xe92b;" d="M609.011 692.323c57.488-21.558 114.975-79.046 136.533-138.33-1.796 1.796-3.593 1.796-3.593 3.593-19.761 21.558-44.912 37.726-70.063 50.302-3.593 1.796-7.186 7.186-10.779 10.779-8.982 12.575-14.372 26.947-23.354 39.523s-19.761 23.354-28.744 34.133z" />
<glyph unicode="&#xe92c;" d="M607.214 210.863c23.354 23.354 41.319 48.505 55.691 77.249 1.796 1.796 3.593 3.593 5.389 5.389 28.744 14.372 53.895 32.337 77.249 55.691-3.593-39.523-91.621-127.551-138.33-138.33z" />
<glyph unicode="&#xe92d;" d="M467.088 259.368h75.453c-5.389-19.761-10.779-39.523-23.354-55.691-8.982-12.575-17.965-12.575-28.744 0-12.575 16.168-17.965 35.93-23.354 55.691z" />
<glyph unicode="&#xe92e;" d="M697.039 413.867v75.453c21.558-7.186 43.116-12.575 61.081-26.947 7.186-7.186 7.186-14.372 0-21.558-7.186-5.389-16.168-10.779-25.151-14.372-10.779-5.389-23.354-8.982-35.93-12.575z" />
<glyph unicode="&#xe92f;" d="M312.589 489.319v-75.453c-19.761 5.389-41.319 12.575-57.488 25.151-10.779 8.982-10.779 16.168 0 25.151 16.168 14.372 35.93 19.761 57.488 25.151z" />
<glyph unicode="&#xe930;" d="M549.726 203.677c5.389 17.965 12.575 37.726 17.965 55.691 0 1.796 3.593 5.389 5.389 5.389 17.965 3.593 35.93 8.982 53.895 12.575-7.186-25.151-52.098-66.47-77.249-73.656z" />
<glyph unicode="&#xe931;" d="M754.526 406.681c-16.168-34.133-41.319-59.284-73.656-79.046 3.593 19.761 8.982 37.726 12.575 55.691 0 1.796 1.796 3.593 3.593 3.593 19.761 7.186 37.726 14.372 57.488 19.761z" />
<glyph unicode="&#xe932;" d="M330.554 327.635c-32.337 19.761-59.284 44.912-75.453 80.842 7.186-3.593 14.372-7.186 19.761-8.982 7.186-3.593 14.372-7.186 21.558-7.186 16.168-1.796 21.558-10.779 23.354-26.947 3.593-10.779 7.186-23.354 10.779-37.726z" />
<glyph unicode="&#xe933;" d="M549.726 701.305c34.133-16.168 59.284-41.319 79.046-73.656-19.761 3.593-37.726 8.982-55.691 12.575-1.796 0-3.593 1.796-3.593 3.593-7.186 19.761-12.575 37.726-19.761 57.488z" />
<glyph unicode="&#xe934;" d="M380.856 625.853c19.761 32.337 44.912 59.284 80.842 75.453-5.389-14.372-12.575-28.744-16.168-43.116s-10.779-21.558-25.151-23.354c-12.575 0-25.151-5.389-39.523-8.982z" />
<glyph unicode="&#xe935;" d="M680.87 575.551c32.337-19.761 59.284-44.912 75.453-80.842-10.779 3.593-19.761 8.982-28.744 12.575s-17.965 5.389-28.744 8.982c-1.796 0-5.389 1.796-5.389 3.593-5.389 17.965-8.982 37.726-12.575 55.691z" />
<glyph unicode="&#xe936;" d="M380.856 277.333c19.761-3.593 37.726-8.982 55.691-12.575 1.796 0 3.593-1.796 3.593-3.593 7.186-17.965 12.575-37.726 19.761-57.488-34.133 14.372-59.284 41.319-79.046 73.656z" />
<glyph unicode="&#xe937;" d="M255.102 496.505c16.168 34.133 41.319 59.284 73.656 79.046-3.593-19.761-8.982-37.726-12.575-55.691 0-1.796-3.593-3.593-5.389-3.593-17.965-7.186-35.93-12.575-55.691-19.761z" />
<glyph unicode="&#xe938;" d="M542.54 642.021h-75.453c5.389 19.761 10.779 39.523 23.354 55.691 8.982 12.575 17.965 12.575 26.947 0 14.372-16.168 19.761-35.93 25.151-55.691z" />
<glyph unicode="&#xe939;" d="M512-64c282.049 0 512 229.951 512 512s-229.951 512-512 512-512-229.951-512-512 229.951-512 512-512z" />
<glyph unicode="&#xe93a;" d="M499.425 320.449c0 0 0 1.796 0 0-10.779 7.186-21.558 14.372-30.54 23.354 0 0-1.796 1.796-1.796 0-7.186-1.796-12.575-3.593-19.761-7.186-12.575-5.389-21.558-14.372-26.947-25.151s-7.186-21.558-7.186-34.133c0 0 0 0 0-1.796 0 0 1.796 1.796 1.796 1.796 3.593 3.593 7.186 7.186 10.779 12.575 5.389 7.186 12.575 12.575 21.558 16.168 10.779 5.389 21.558 8.982 32.337 12.575 7.186 0 12.575 1.796 19.761 1.796zM413.193 415.663c0 0 0 0 0 0s0 0 0 0c-8.982 5.389-17.965 8.982-26.947 10.779-5.389 1.796-10.779 1.796-16.168 0-7.186-1.796-12.575-5.389-17.965-8.982-7.186-7.186-12.575-17.965-16.168-26.947 0 0 0 0 0 0s0 0 1.796 0c5.389-1.796 10.779-3.593 17.965-5.389 5.389-1.796 12.575-1.796 17.965 0 7.186 1.796 14.372 5.389 19.761 10.779 7.186 5.389 12.575 12.575 16.168 19.761 3.593-1.796 3.593-1.796 3.593 0zM450.919 474.947c0-12.575 0-23.354 1.796-34.133s3.593-21.558 7.186-32.337c3.593-14.372 8.982-26.947 17.965-37.726 17.965-23.354 41.319-37.726 70.063-39.523 12.575-1.796 23.354 0 35.93 3.593 14.372 5.389 28.744 12.575 39.523 21.558 12.575 8.982 23.354 19.761 34.133 32.337 16.168 17.965 28.744 37.726 41.319 57.488 19.761 32.337 34.133 66.47 46.709 102.4 1.796 5.389 1.796 8.982 0 14.372-1.796 3.593-3.593 7.186-7.186 8.982-5.389 5.389-10.779 10.779-16.168 14.372-12.575 8.982-25.151 16.168-39.523 23.354-26.947 12.575-53.895 23.354-82.639 32.337-23.354 7.186-46.709 12.575-71.86 14.372-8.982 0-16.168 0-25.151 0-3.593 0-8.982-1.796-12.575-3.593s-5.389-5.389-7.186-8.982c-14.372-39.523-25.151-80.842-30.54-123.958-1.796-8.982-1.796-19.761-3.593-28.744 1.796-7.186 1.796-12.575 1.796-16.168zM253.305 460.575v3.593c0 0 0 1.796 0 1.796 1.796 5.389 3.593 8.982 5.389 12.575 3.593 3.593 7.186 7.186 10.779 10.779 7.186 5.389 14.372 10.779 21.558 16.168 14.372 8.982 30.54 17.965 46.709 25.151 32.337 14.372 64.674 25.151 98.807 34.133 1.796 0 1.796 0 1.796 1.796 5.389 28.744 14.372 55.691 25.151 84.435 3.593 10.779 10.779 17.965 19.761 21.558s17.965 5.389 26.947 7.186c10.779 0 21.558 0 32.337-1.796 12.575-1.796 23.354-3.593 35.93-7.186 28.744-7.186 55.691-16.168 82.639-26.947 19.761-8.982 39.523-17.965 57.488-28.744 10.779-7.186 21.558-14.372 32.337-23.354 5.389-5.389 10.779-10.779 14.372-17.965 1.796-5.389 3.593-8.982 5.389-14.372 0 0 0 0 0-1.796v-7.186c0 0 0 0 0-1.796 0-3.593 0-5.389-1.796-7.186-7.186-19.761-14.372-39.523-23.354-57.488-12.575-25.151-25.151-48.505-41.319-71.86-12.575-19.761-28.744-37.726-44.912-53.895-12.575-12.575-26.947-23.354-44.912-32.337-12.575-7.186-25.151-10.779-39.523-14.372-1.796 0-3.593 0-5.389-1.796 0 0 0-1.796 0-1.796-1.796-7.186-3.593-12.575-7.186-19.761-7.186-14.372-14.372-28.744-26.947-39.523-17.965-16.168-37.726-25.151-62.877-28.744-1.796 0-3.593 0-5.389 0h-7.186c0 0-1.796 0-1.796 0-5.389 0-12.575 1.796-17.965 1.796-14.372 3.593-26.947 8.982-39.523 17.965-16.168 8.982-28.744 21.558-41.319 34.133-16.168 17.965-30.54 35.93-43.116 55.691-16.168 26.947-30.54 53.895-43.116 82.639-7.186 14.372-14.372 30.54-19.761 48.505 0-1.796 0-1.796 0 0z" />
<glyph unicode="&#xe93b;" d="M501.221 473.151c1.796-1.796 3.593-3.593 3.593-3.593 1.796-1.796 5.389-5.389 7.186-7.186 10.779-14.372 25.151-23.354 41.319-30.54 7.186-3.593 16.168-5.389 25.151-7.186s16.168-1.796 25.151 0c5.389 1.796 10.779 1.796 17.965 3.593 1.796 0 3.593 0 7.186 0 0 0 0-1.796 0-1.796-10.779-14.372-23.354-25.151-39.523-28.744-10.779-3.593-23.354-3.593-34.133 0-12.575 3.593-23.354 8.982-32.337 17.965s-14.372 19.761-17.965 32.337c-1.796 7.186-1.796 16.168-1.796 23.354-1.796 0-1.796 1.796-1.796 1.796z" />
<glyph unicode="&#xe93c;" d="M573.081 518.063c-1.796 0-1.796 0 0 0-10.779-3.593-19.761-5.389-28.744-5.389-12.575 0-25.151 5.389-34.133 14.372-5.389 5.389-8.982 10.779-12.575 17.965 0 0 0 0 0 1.796 0 0 0 0 0 0s1.796 0 1.796 1.796c7.186 5.389 14.372 7.186 23.354 8.982 5.389 1.796 12.575 1.796 17.965 0s10.779-5.389 14.372-8.982c7.186-7.186 10.779-14.372 16.168-23.354 0-3.593 0-5.389 1.796-7.186 0 1.796 0 1.796 0 0z" />
<glyph unicode="&#xe93d;" d="M601.825 507.284c0 1.796 1.796 1.796 0 0 8.982 5.389 17.965 8.982 28.744 10.779 5.389 0 10.779 1.796 14.372 0 7.186-1.796 12.575-5.389 17.965-10.779 7.186-7.186 10.779-14.372 14.372-23.354 0-1.796 0-1.796 1.796-3.593 0 0-1.796 0-1.796 0-8.982-3.593-19.761-5.389-28.744-5.389-7.186 0-14.372 1.796-19.761 7.186-12.575 5.389-19.761 14.372-26.947 25.151 0 0 0 0 0 0z" />
<glyph unicode="&#xe93e;" d="M512-64c282.049 0 512 229.951 512 512s-229.951 512-512 512-512-229.951-512-512 229.951-512 512-512z" />
<glyph unicode="&#xe93f;" d="M233.544 415.663c1.796 5.389 1.796 8.982 3.593 14.372 10.779 43.116 46.709 73.656 89.825 79.046 10.779 1.796 21.558 0 32.337 0 17.965 0 35.93 0 52.098 0 0 0 1.796 0 3.593 0 0-12.575 3.593-25.151 8.982-37.726s12.575-21.558 21.558-32.337c-66.47-25.151-93.418-75.453-88.028-145.516-1.796 0-1.796 0-1.796 0-37.726 1.796-75.453 8.982-111.382 21.558-3.593 1.796-7.186 1.796-8.982 1.796v98.807z" />
<glyph unicode="&#xe940;" d="M790.456 320.449c-35.93-17.965-75.453-23.354-114.975-25.151 0 1.796 0 3.593 0 5.389 0 16.168 0 30.54-3.593 46.709-5.389 26.947-19.761 50.302-39.523 68.267-12.575 10.779-28.744 19.761-44.912 25.151 3.593 3.593 5.389 7.186 8.982 10.779 12.575 16.168 19.761 34.133 21.558 53.895 0 3.593 0 5.389 3.593 5.389 23.354 0 48.505 0 71.86 0 26.947-1.796 50.302-12.575 68.267-32.337 16.168-16.168 23.354-35.93 26.947-57.488 0-1.796 0-1.796 1.796-3.593v-97.011z" />
<glyph unicode="&#xe941;" d="M515.593 424.646c14.372 0 28.744 0 43.116 0 23.354-1.796 44.912-10.779 62.877-26.947 16.168-14.372 26.947-34.133 32.337-55.691 1.796-7.186 1.796-16.168 1.796-23.354 0-26.947 0-52.098 0-79.046 0-3.593-1.796-5.389-3.593-7.186-28.744-12.575-57.488-19.761-88.028-21.558-50.302-5.389-98.807 0-147.312 12.575-12.575 3.593-23.354 7.186-35.93 8.982-3.593 0-3.593 1.796-3.593 5.389 0 28.744 0 55.691 0 84.435 1.796 41.319 19.761 71.86 55.691 91.621 16.168 8.982 34.133 12.575 52.098 12.575 8.982 0 19.761 0 30.54-1.796 0 0 0 0 0 0z" />
<glyph unicode="&#xe942;" d="M515.593 595.312c44.912 0 80.842-35.93 80.842-82.639 0-44.912-37.726-82.639-82.639-80.842-44.912 0-82.639 37.726-80.842 82.639s37.726 80.842 82.639 80.842z" />
<glyph unicode="&#xe943;" d="M377.263 516.267c-39.523-1.796-71.86 23.354-82.639 57.488-10.779 35.93 3.593 73.656 35.93 93.418 41.319 25.151 95.214 10.779 116.772-34.133 5.389-10.779 8.982-23.354 8.982-35.93 0-1.796-1.796-5.389-1.796-7.186-17.965-16.168-30.54-35.93-35.93-59.284 0-1.796-1.796-3.593-3.593-5.389-14.372-5.389-26.947-8.982-37.726-8.982z" />
<glyph unicode="&#xe944;" d="M650.33 679.747c39.523 0 73.656-26.947 80.842-66.47s-14.372-79.046-52.098-91.621c-19.761-7.186-39.523-7.186-59.284 1.796-3.593 1.796-3.593 3.593-3.593 5.389-3.593 21.558-12.575 39.523-26.947 53.895-5.389 5.389-10.779 8.982-16.168 14.372-1.796 1.796-3.593 3.593-3.593 5.389 1.796 26.947 14.372 48.505 37.726 64.674 14.372 8.982 28.744 12.575 43.116 12.575z" />
<glyph unicode="&#xe945;" d="M512-64c282.049 0 512 229.951 512 512s-229.951 512-512 512-512-229.951-512-512 229.951-512 512-512z" />
<glyph unicode="&#xe946;" d="M538.947 473.151c0-14.372 12.575-26.947 26.947-26.947s26.947 12.575 26.947 26.947c0 14.372-12.575 26.947-26.947 26.947s-26.947-12.575-26.947-26.947zM458.105 446.204c14.372 0 26.947 12.575 26.947 26.947s-12.575 26.947-26.947 26.947c-14.372 0-26.947-12.575-26.947-26.947s12.575-26.947 26.947-26.947zM529.965 270.147c3.593 0 7.186 0 10.779 1.796 12.575 1.796 25.151 5.389 35.93 14.372 8.982 7.186 19.761 14.372 28.744 19.761 10.779 7.186 14.372 17.965 14.372 30.54 0 3.593-1.796 8.982-3.593 12.575-7.186 12.575-16.168 25.151-23.354 39.523-10.779 17.965-25.151 26.947-44.912 26.947-21.558 0-43.116 0-64.674 0-3.593 0-7.186 0-8.982 0-16.168-3.593-28.744-12.575-37.726-26.947s-16.168-28.744-25.151-41.319c-1.796-3.593-3.593-8.982-3.593-14.372 0-10.779 3.593-17.965 12.575-23.354 7.186-5.389 14.372-10.779 23.354-16.168 14.372-8.982 28.744-16.168 44.912-17.965 3.593 0 5.389 0 8.982 0v1.796c0 12.575 0 26.947 0 39.523 0 1.796 0 1.796-1.796 3.593-5.389 7.186-12.575 14.372-17.965 21.558-3.593 5.389-5.389 10.779-1.796 16.168 1.796 5.389 7.186 7.186 12.575 7.186 17.965 0 35.93 0 53.895 0 1.796 0 1.796 0 3.593 0 10.779-1.796 14.372-16.168 7.186-23.354s-12.575-14.372-19.761-21.558c0 0-1.796-1.796-1.796-1.796 0-12.575 0-26.947 0-39.523v-8.982zM610.807 622.26c1.796 3.593 5.389 5.389 7.186 8.982 5.389 5.389 12.575 10.779 21.558 12.575s17.965 1.796 26.947-3.593c10.779-5.389 19.761-10.779 26.947-19.761 5.389-7.186 10.779-14.372 14.372-21.558 5.389-14.372 1.796-26.947-7.186-37.726-5.389-7.186-12.575-12.575-21.558-16.168 0 0-1.796 0-1.796 0s0 0 0 0 0-1.796 0-1.796c17.965-32.337 35.93-66.47 53.895-98.807 7.186-12.575 10.779-25.151 12.575-39.523 1.796-25.151-5.389-46.709-23.354-66.47-5.389-5.389-10.779-10.779-16.168-16.168-16.168-14.372-34.133-30.54-50.302-44.912s-34.133-25.151-55.691-32.337c-16.168-5.389-34.133-8.982-52.098-8.982-23.354 0-46.709 0-70.063 0-41.319 0-79.046 14.372-111.382 43.116-17.965 16.168-37.726 32.337-55.691 50.302-14.372 14.372-25.151 30.54-28.744 50.302-3.593 21.558-1.796 41.319 8.982 61.081 16.168 30.54 32.337 61.081 50.302 89.825 1.796 3.593 5.389 8.982 7.186 12.575-1.796 1.796-5.389 1.796-7.186 3.593-12.575 7.186-21.558 17.965-23.354 32.337-1.796 8.982 0 17.965 3.593 26.947 8.982 17.965 23.354 30.54 41.319 37.726 16.168 5.389 32.337 1.796 43.116-10.779 1.796-1.796 3.593-5.389 7.186-8.982 0 0 1.796-1.796 1.796 0 8.982 3.593 17.965 5.389 28.744 5.389 46.709 0 93.418 0 140.126 0 10.779-1.796 19.761-3.593 28.744-7.186z" />
<glyph unicode="&#xe947;" d="M512-64c282.049 0 512 229.951 512 512s-229.951 512-512 512-512-229.951-512-512 229.951-512 512-512z" />
<glyph unicode="&#xe948;" d="M341.333 230.625c-5.389 1.796-10.779 1.796-16.168 3.593-16.168 3.593-35.93 23.354-30.54 48.505 3.593 12.575 8.982 21.558 17.965 32.337 1.796 3.593 5.389 5.389 8.982 8.982 1.796 1.796 1.796 3.593 1.796 3.593 0 8.982 1.796 16.168 7.186 23.354 14.372 16.168 26.947 32.337 41.319 50.302 16.168 17.965 30.54 37.726 46.709 55.691 8.982 12.575 19.761 23.354 28.744 35.93 10.779 12.575 21.558 26.947 32.337 39.523 1.796 1.796 3.593 3.593 5.389 7.186 14.372-34.133 39.523-57.488 71.86-71.86-3.593-1.796-5.389-3.593-7.186-7.186-25.151-21.558-52.098-43.116-77.249-62.877-19.761-16.168-39.523-32.337-59.284-48.505-16.168-12.575-30.54-25.151-46.709-37.726-7.186-5.389-16.168-8.982-25.151-7.186-1.796 0-3.593 0-5.389-1.796-5.389-5.389-10.779-12.575-14.372-17.965-5.389-7.186-3.593-14.372 3.593-19.761 1.796-1.796 3.593-1.796 5.389-1.796 16.168-5.389 32.337-1.796 46.709 7.186s26.947 19.761 39.523 30.54c14.372 12.575 28.744 25.151 46.709 34.133 26.947 16.168 55.691 17.965 86.232 8.982 26.947-7.186 50.302-19.761 71.86-37.726 16.168-14.372 30.54-28.744 44.912-46.709 3.593-5.389 3.593-10.779 1.796-16.168-3.593-3.593-8.982-7.186-14.372-5.389-3.593 0-7.186 1.796-8.982 5.389-16.168 19.761-34.133 37.726-53.895 52.098-23.354 16.168-46.709 25.151-75.453 25.151-16.168 0-28.744-5.389-43.116-14.372-19.761-12.575-34.133-28.744-52.098-41.319-19.761-16.168-39.523-28.744-62.877-30.54 0 0 0 0-1.796 0h-14.372z" />
<glyph unicode="&#xe949;" d="M589.249 665.375c5.389-1.796 12.575-1.796 17.965-3.593 16.168-5.389 30.54-12.575 41.319-25.151 12.575-10.779 21.558-25.151 26.947-39.523 8.982-25.151 10.779-48.505-1.796-73.656-1.796-3.593-3.593-5.389-7.186-3.593-23.354 5.389-44.912 14.372-64.674 28.744s-34.133 32.337-46.709 52.098c-8.982 16.168-14.372 32.337-17.965 50.302 0 1.796 0 3.593 1.796 5.389 8.982 5.389 17.965 7.186 26.947 8.982 1.796 0 1.796 0 3.593 0h19.761z" />
<glyph unicode="&#xe94a;" d="M515.593 629.446c21.558-68.267 66.47-113.179 134.737-134.737-8.982-5.389-17.965-8.982-28.744-10.779-28.744-3.593-53.895 3.593-75.453 21.558-17.965 12.575-30.54 30.54-37.726 52.098-7.186 23.354-7.186 44.912 3.593 68.267 1.796 0 1.796 1.796 3.593 3.593z" />
<glyph unicode="&#xe94b;" d="M512-64c282.049 0 512 229.951 512 512s-229.951 512-512 512-512-229.951-512-512 229.951-512 512-512z" />
<glyph unicode="&#xe94c;" d="M697.039 404.884c-57.488-30.54-109.586-64.674-131.144-131.144-1.796 3.593-1.796 5.389-1.796 7.186-16.168 59.284-30.54 118.568-44.912 177.853-5.389 21.558-10.779 43.116-14.372 64.674 0 3.593 0 7.186 0 10.779 5.389 21.558 16.168 41.319 30.54 59.284 25.151 32.337 57.488 59.284 91.621 82.639 1.796 0 1.796 1.796 3.593 1.796 21.558-89.825 43.116-181.446 66.47-273.067z" />
<glyph unicode="&#xe94d;" d="M384.449 329.432c-23.354 91.621-44.912 183.242-68.267 276.66 8.982 0 16.168-1.796 23.354-1.796 43.116-8.982 84.435-23.354 122.161-46.709 16.168-8.982 25.151-23.354 28.744-41.319 19.761-80.842 39.523-159.888 59.284-240.73 0-1.796 0-1.796 1.796-3.593-48.505 44.912-104.196 57.488-167.074 57.488z" />
<glyph unicode="&#xe94e;" d="M743.747 381.53c-21.558 86.232-43.116 172.463-64.674 260.491 7.186 1.796 14.372 3.593 21.558 5.389 23.354-95.214 46.709-190.428 71.86-287.439-64.674-12.575-123.958-34.133-177.853-71.86 10.779 16.168 25.151 30.54 41.319 41.319s34.133 21.558 52.098 28.744c16.168 10.779 35.93 16.168 55.691 23.354z" />
<glyph unicode="&#xe94f;" d="M256.898 537.825c7.186 1.796 14.372 3.593 21.558 5.389 21.558-86.232 43.116-172.463 64.674-260.491 26.947 5.389 55.691 5.389 82.639 3.593s53.895-5.389 80.842-14.372c-61.081 3.593-120.365-1.796-179.649-21.558-23.354 95.214-46.709 190.428-70.063 287.439z" />
<glyph unicode="&#xe950;" d="M375.467 315.060c50.302 5.389 95.214-5.389 138.33-30.54-52.098 12.575-105.993 17.965-159.888 12.575-23.354 91.621-44.912 183.242-68.267 276.66 8.982 1.796 16.168 1.796 25.151 3.593 21.558-88.028 43.116-174.26 64.674-262.288z" />
<glyph unicode="&#xe951;" d="M659.312 665.375c23.354-91.621 44.912-183.242 68.267-274.863-17.965-7.186-37.726-14.372-53.895-23.354-17.965-8.982-34.133-17.965-50.302-26.947 14.372 10.779 28.744 21.558 43.116 30.54s30.54 17.965 46.709 26.947c0 1.796-1.796 5.389-1.796 8.982-19.761 80.842-39.523 161.684-61.081 242.526-3.593 10.779-3.593 10.779 8.982 16.168z" />
<glyph unicode="&#xe952;" d="M512-64c282.049 0 512 229.951 512 512s-229.951 512-512 512-512-229.951-512-512 229.951-512 512-512z" />
<glyph unicode="&#xe955;" d="M504.814 394.105c-17.965 0-34.133 0-52.098 0-5.389 0-7.186 1.796-7.186 7.186 0 34.133 0 68.267 0 104.196 0 5.389 1.796 7.186 7.186 7.186 34.133 0 68.267 0 104.196 0 5.389 0 7.186-1.796 7.186-7.186 0-34.133 0-70.063 0-104.196 0-5.389-1.796-7.186-7.186-7.186-17.965 0-34.133 0-52.098 0 0 0 0 0 0 0z" />
<glyph unicode="&#xe956;" d="M447.326 368.954h113.179c-1.796-12.575-1.796-25.151-3.593-37.726s-3.593-25.151-5.389-37.726c0-3.593-1.796-7.186-7.186-5.389-25.151 0-52.098 0-77.249 0-1.796 0-5.389 1.796-5.389 3.593-5.389 25.151-10.779 50.302-14.372 77.249z" />
<glyph unicode="&#xe957;" d="M589.249 395.902v113.179c12.575-1.796 26.947-1.796 39.523-3.593s25.151-3.593 37.726-5.389c3.593 0 5.389-1.796 5.389-7.186 0-25.151 0-52.098 0-77.249 0-1.796-1.796-5.389-5.389-5.389-25.151-7.186-52.098-10.779-77.249-14.372z" />
<glyph unicode="&#xe958;" d="M420.379 507.284v-111.382c-17.965 1.796-34.133 3.593-52.098 7.186-7.186 1.796-16.168 1.796-23.354 3.593-1.796 0-5.389 3.593-5.389 5.389 0 26.947 0 52.098 0 79.046 0 1.796 1.796 5.389 3.593 5.389 25.151 5.389 50.302 7.186 77.249 10.779 0 0 0 0 0 0z" />
<glyph unicode="&#xe959;" d="M562.302 536.028h-113.179c1.796 12.575 1.796 25.151 3.593 37.726s3.593 25.151 5.389 37.726c0 3.593 1.796 5.389 7.186 5.389 25.151 0 52.098 0 77.249 0 1.796 0 5.389-1.796 5.389-3.593 5.389-25.151 10.779-50.302 14.372-77.249z" />
<glyph unicode="&#xe95a;" d="M423.972 534.232c-26.947-3.593-52.098-7.186-80.842-10.779 3.593 16.168 7.186 32.337 12.575 46.709 10.779 28.744 1.796 21.558 30.54 30.54 12.575 3.593 25.151 7.186 37.726 10.779 3.593 0 5.389 1.796 8.982 1.796-1.796-14.372-3.593-26.947-5.389-39.523s-3.593-25.151-3.593-39.523z" />
<glyph unicode="&#xe95b;" d="M668.295 523.453c-28.744 3.593-53.895 7.186-80.842 10.779-3.593 26.947-7.186 52.098-10.779 80.842 19.761-5.389 37.726-10.779 55.691-16.168 10.779-3.593 16.168-8.982 17.965-17.965 5.389-19.761 12.575-37.726 17.965-57.488z" />
<glyph unicode="&#xe95c;" d="M576.674 288.112c3.593 28.744 7.186 55.691 10.779 80.842 26.947 3.593 52.098 7.186 79.046 10.779-3.593-23.354-10.779-44.912-19.761-66.47 0-1.796-1.796-1.796-3.593-3.593-21.558-7.186-43.116-14.372-66.47-21.558z" />
<glyph unicode="&#xe95d;" d="M432.954 288.112c-23.354 7.186-44.912 14.372-66.47 21.558-1.796 0-3.593 3.593-5.389 5.389-7.186 21.558-14.372 43.116-21.558 66.47 28.744-3.593 55.691-7.186 80.842-10.779 5.389-26.947 8.982-52.098 12.575-82.639z" />
<glyph unicode="&#xe95e;" d="M400.618 210.863c-62.877 26.947-109.586 73.656-136.533 136.533 23.354-23.354 48.505-41.319 79.046-55.691 1.796-1.796 3.593-3.593 5.389-5.389 12.575-26.947 30.54-52.098 52.098-75.453z" />
<glyph unicode="&#xe95f;" d="M400.618 692.323c-23.354-23.354-41.319-48.505-55.691-79.046 0-1.796-3.593-3.593-5.389-3.593-28.744-14.372-53.895-30.54-77.249-53.895 0 0 0 0-1.796 0 32.337 64.674 77.249 109.586 140.126 136.533z" />
<glyph unicode="&#xe960;" d="M609.011 692.323c57.488-21.558 114.975-79.046 136.533-138.33-1.796 1.796-3.593 1.796-3.593 3.593-19.761 21.558-44.912 37.726-70.063 50.302-3.593 1.796-7.186 7.186-10.779 10.779-8.982 12.575-14.372 26.947-23.354 39.523s-19.761 23.354-28.744 34.133z" />
<glyph unicode="&#xe961;" d="M607.214 210.863c23.354 23.354 41.319 48.505 55.691 77.249 1.796 1.796 3.593 3.593 5.389 5.389 28.744 14.372 53.895 32.337 77.249 55.691-3.593-39.523-91.621-127.551-138.33-138.33z" />
<glyph unicode="&#xe962;" d="M467.088 259.368h75.453c-5.389-19.761-10.779-39.523-23.354-55.691-8.982-12.575-17.965-12.575-28.744 0-12.575 16.168-17.965 35.93-23.354 55.691z" />
<glyph unicode="&#xe963;" d="M697.039 413.867v75.453c21.558-7.186 43.116-12.575 61.081-26.947 7.186-7.186 7.186-14.372 0-21.558-7.186-5.389-16.168-10.779-25.151-14.372-10.779-5.389-23.354-8.982-35.93-12.575z" />
<glyph unicode="&#xe964;" d="M312.589 489.319v-75.453c-19.761 5.389-41.319 12.575-57.488 25.151-10.779 8.982-10.779 16.168 0 25.151 16.168 14.372 35.93 19.761 57.488 25.151z" />
<glyph unicode="&#xe965;" d="M549.726 203.677c5.389 17.965 12.575 37.726 17.965 55.691 0 1.796 3.593 5.389 5.389 5.389 17.965 3.593 35.93 8.982 53.895 12.575-7.186-25.151-52.098-66.47-77.249-73.656z" />
<glyph unicode="&#xe966;" d="M754.526 406.681c-16.168-34.133-41.319-59.284-73.656-79.046 3.593 19.761 8.982 37.726 12.575 55.691 0 1.796 1.796 3.593 3.593 3.593 19.761 7.186 37.726 14.372 57.488 19.761z" />
<glyph unicode="&#xe967;" d="M330.554 327.635c-32.337 19.761-59.284 44.912-75.453 80.842 7.186-3.593 14.372-7.186 19.761-8.982 7.186-3.593 14.372-7.186 21.558-7.186 16.168-1.796 21.558-10.779 23.354-26.947 3.593-10.779 7.186-23.354 10.779-37.726z" />
<glyph unicode="&#xe968;" d="M549.726 701.305c34.133-16.168 59.284-41.319 79.046-73.656-19.761 3.593-37.726 8.982-55.691 12.575-1.796 0-3.593 1.796-3.593 3.593-7.186 19.761-12.575 37.726-19.761 57.488z" />
<glyph unicode="&#xe969;" d="M380.856 625.853c19.761 32.337 44.912 59.284 80.842 75.453-5.389-14.372-12.575-28.744-16.168-43.116s-10.779-21.558-25.151-23.354c-12.575 0-25.151-5.389-39.523-8.982z" />
<glyph unicode="&#xe96a;" d="M680.87 575.551c32.337-19.761 59.284-44.912 75.453-80.842-10.779 3.593-19.761 8.982-28.744 12.575s-17.965 5.389-28.744 8.982c-1.796 0-5.389 1.796-5.389 3.593-5.389 17.965-8.982 37.726-12.575 55.691z" />
<glyph unicode="&#xe96b;" d="M380.856 277.333c19.761-3.593 37.726-8.982 55.691-12.575 1.796 0 3.593-1.796 3.593-3.593 7.186-17.965 12.575-37.726 19.761-57.488-34.133 14.372-59.284 41.319-79.046 73.656z" />
<glyph unicode="&#xe96c;" d="M255.102 496.505c16.168 34.133 41.319 59.284 73.656 79.046-3.593-19.761-8.982-37.726-12.575-55.691 0-1.796-3.593-3.593-5.389-3.593-17.965-7.186-35.93-12.575-55.691-19.761z" />
<glyph unicode="&#xe96d;" d="M542.54 642.021h-75.453c5.389 19.761 10.779 39.523 23.354 55.691 8.982 12.575 17.965 12.575 26.947 0 14.372-16.168 19.761-35.93 25.151-55.691z" />
<glyph unicode="&#xe96e;" d="M512 960c-282.049 0-512-229.951-512-512s229.951-512 512-512 512 229.951 512 512-229.951 512-512 512z" />
<glyph unicode="&#xe96f;" d="M287.439 568.365c-17.965-17.965-26.947-48.505-26.947-89.825v-61.081c0-41.319 8.982-71.86 26.947-89.825s44.912-32.337 80.842-43.116l325.165-93.418c10.779-1.796 17.965-1.796 23.354 3.593s7.186 12.575 7.186 23.354v113.179c0 10.779-1.796 19.761-7.186 25.151s-12.575 8.982-23.354 10.779l-246.119 66.47c-5.389 1.796-8.982 3.593-10.779 5.389s-3.593 5.389-3.593 10.779c0 5.389 1.796 8.982 3.593 10.779s5.389 3.593 10.779 5.389l246.119 66.47c10.779 1.796 17.965 5.389 23.354 10.779s7.186 14.372 7.186 25.151v113.179c0 10.779-1.796 17.965-7.186 23.354s-12.575 5.389-23.354 3.593l-325.165-93.418c-35.93-14.372-62.877-28.744-80.842-46.709z" />
<glyph unicode="&#xe970;" d="M1024 448c0 282.049-229.951 512-512 512s-512-229.951-512-512 229.951-512 512-512 512 229.951 512 512z" />
<glyph unicode="&#xe971;" d="M632.365 672.561c-17.965 17.965-48.505 26.947-89.825 26.947h-61.081c-41.319 0-71.86-8.982-89.825-26.947s-32.337-44.912-43.116-80.842l-93.418-325.165c-1.796-10.779-1.796-17.965 3.593-23.354s12.575-7.186 23.354-7.186h113.179c10.779 0 19.761 1.796 25.151 7.186s8.982 12.575 10.779 23.354l66.47 246.119c1.796 5.389 3.593 8.982 5.389 10.779s5.389 3.593 10.779 3.593c5.389 0 8.982-1.796 10.779-3.593s3.593-5.389 5.389-10.779l66.47-246.119c1.796-10.779 5.389-17.965 10.779-23.354s14.372-7.186 25.151-7.186h113.179c10.779 0 17.965 1.796 23.354 7.186s5.389 12.575 3.593 23.354l-93.418 325.165c-14.372 35.93-28.744 62.877-46.709 80.842z" />
<glyph unicode="&#xe972;" d="M512-64c282.049 0 512 229.951 512 512s-229.951 512-512 512-512-229.951-512-512 229.951-512 512-512z" />
<glyph unicode="&#xe973;" d="M736.561 327.635c17.965 17.965 26.947 48.505 26.947 89.825v61.081c0 41.319-8.982 71.86-26.947 89.825s-44.912 32.337-80.842 43.116l-325.165 93.418c-10.779 1.796-17.965 1.796-23.354-3.593s-7.186-12.575-7.186-23.354v-113.179c0-10.779 1.796-19.761 7.186-25.151s12.575-8.982 23.354-10.779l246.119-66.47c5.389-1.796 8.982-3.593 10.779-5.389s3.593-5.389 3.593-10.779c0-5.389-1.796-8.982-3.593-10.779s-5.389-3.593-10.779-5.389l-246.119-66.47c-10.779-1.796-17.965-5.389-23.354-10.779s-7.186-14.372-7.186-25.151v-113.179c0-10.779 1.796-17.965 7.186-23.354s12.575-5.389 23.354-3.593l325.165 93.418c35.93 14.372 62.877 28.744 80.842 46.709z" />
<glyph unicode="&#xe974;" d="M0 448c0-282.049 229.951-512 512-512s512 229.951 512 512-229.951 512-512 512-512-229.951-512-512z" />
<glyph unicode="&#xe975;" d="M391.635 223.439c17.965-17.965 48.505-26.947 89.825-26.947h61.081c41.319 0 71.86 8.982 89.825 26.947s32.337 44.912 43.116 80.842l93.418 325.165c1.796 10.779 1.796 17.965-3.593 23.354s-12.575 7.186-23.354 7.186h-113.179c-10.779 0-19.761-1.796-25.151-7.186s-8.982-12.575-10.779-23.354l-66.47-246.119c-1.796-5.389-3.593-8.982-5.389-10.779s-5.389-3.593-10.779-3.593c-5.389 0-8.982 1.796-10.779 3.593s-3.593 5.389-5.389 10.779l-66.47 246.119c-1.796 10.779-5.389 17.965-10.779 23.354s-14.372 7.186-25.151 7.186h-113.179c-10.779 0-17.965-1.796-23.354-7.186s-5.389-12.575-3.593-23.354l93.418-325.165c14.372-35.93 28.744-62.877 46.709-80.842z" />
<glyph unicode="&#xe976;" d="M512-64c282.049 0 512 229.951 512 512s-229.951 512-512 512-512-229.951-512-512 229.951-512 512-512z" />
<glyph unicode="&#xe977;" d="M267.677 494.709c1.796 44.912 14.372 80.842 46.709 109.586 37.726 32.337 80.842 35.93 125.754 17.965 21.558-8.982 41.319-23.354 57.488-39.523 7.186-7.186 8.982-7.186 16.168 0 21.558 21.558 44.912 37.726 75.453 44.912 57.488 14.372 116.772-16.168 141.923-71.86 16.168-37.726 14.372-75.453 1.796-114.975-12.575-35.93-34.133-68.267-57.488-97.011-35.93-43.116-77.249-80.842-122.161-114.975-14.372-10.779-28.744-21.558-43.116-34.133-1.796-1.796-5.389-3.593-7.186 0-34.133 25.151-66.47 50.302-98.807 79.046-35.93 34.133-70.063 68.267-97.011 111.382-17.965 26.947-30.54 55.691-35.93 88.028-1.796 7.186-3.593 16.168-3.593 21.558z" />
<glyph unicode="&#xe978;" d="M512-64c282.049 0 512 229.951 512 512s-229.951 512-512 512-512-229.951-512-512 229.951-512 512-512z" />
<glyph unicode="&#xe979;" d="M499.425 320.449c0 0 0 1.796 0 0-10.779 7.186-21.558 14.372-30.54 23.354 0 0-1.796 1.796-1.796 0-7.186-1.796-12.575-3.593-19.761-7.186-12.575-5.389-21.558-14.372-26.947-25.151s-7.186-21.558-7.186-34.133c0 0 0 0 0-1.796 0 0 1.796 1.796 1.796 1.796 3.593 3.593 7.186 7.186 10.779 12.575 5.389 7.186 12.575 12.575 21.558 16.168 10.779 5.389 21.558 8.982 32.337 12.575 7.186 0 12.575 1.796 19.761 1.796zM413.193 415.663c0 0 0 0 0 0s0 0 0 0c-8.982 5.389-17.965 8.982-26.947 10.779-5.389 1.796-10.779 1.796-16.168 0-7.186-1.796-12.575-5.389-17.965-8.982-7.186-7.186-12.575-17.965-16.168-26.947 0 0 0 0 0 0s0 0 1.796 0c5.389-1.796 10.779-3.593 17.965-5.389 5.389-1.796 12.575-1.796 17.965 0 7.186 1.796 14.372 5.389 19.761 10.779 7.186 5.389 12.575 12.575 16.168 19.761 3.593-1.796 3.593-1.796 3.593 0zM450.919 474.947c0-12.575 0-23.354 1.796-34.133s3.593-21.558 7.186-32.337c3.593-14.372 8.982-26.947 17.965-37.726 17.965-23.354 41.319-37.726 70.063-39.523 12.575-1.796 23.354 0 35.93 3.593 14.372 5.389 28.744 12.575 39.523 21.558 12.575 8.982 23.354 19.761 34.133 32.337 16.168 17.965 28.744 37.726 41.319 57.488 19.761 32.337 34.133 66.47 46.709 102.4 1.796 5.389 1.796 8.982 0 14.372-1.796 3.593-3.593 7.186-7.186 8.982-5.389 5.389-10.779 10.779-16.168 14.372-12.575 8.982-25.151 16.168-39.523 23.354-26.947 12.575-53.895 23.354-82.639 32.337-23.354 7.186-46.709 12.575-71.86 14.372-8.982 0-16.168 0-25.151 0-3.593 0-8.982-1.796-12.575-3.593s-5.389-5.389-7.186-8.982c-14.372-39.523-25.151-80.842-30.54-123.958-1.796-8.982-1.796-19.761-3.593-28.744 1.796-7.186 1.796-12.575 1.796-16.168zM253.305 460.575v3.593c0 0 0 1.796 0 1.796 1.796 5.389 3.593 8.982 5.389 12.575 3.593 3.593 7.186 7.186 10.779 10.779 7.186 5.389 14.372 10.779 21.558 16.168 14.372 8.982 30.54 17.965 46.709 25.151 32.337 14.372 64.674 25.151 98.807 34.133 1.796 0 1.796 0 1.796 1.796 5.389 28.744 14.372 55.691 25.151 84.435 3.593 10.779 10.779 17.965 19.761 21.558s17.965 5.389 26.947 7.186c10.779 0 21.558 0 32.337-1.796 12.575-1.796 23.354-3.593 35.93-7.186 28.744-7.186 55.691-16.168 82.639-26.947 19.761-8.982 39.523-17.965 57.488-28.744 10.779-7.186 21.558-14.372 32.337-23.354 5.389-5.389 10.779-10.779 14.372-17.965 1.796-5.389 3.593-8.982 5.389-14.372 0 0 0 0 0-1.796v-7.186c0 0 0 0 0-1.796 0-3.593 0-5.389-1.796-7.186-7.186-19.761-14.372-39.523-23.354-57.488-12.575-25.151-25.151-48.505-41.319-71.86-12.575-19.761-28.744-37.726-44.912-53.895-12.575-12.575-26.947-23.354-44.912-32.337-12.575-7.186-25.151-10.779-39.523-14.372-1.796 0-3.593 0-5.389-1.796 0 0 0-1.796 0-1.796-1.796-7.186-3.593-12.575-7.186-19.761-7.186-14.372-14.372-28.744-26.947-39.523-17.965-16.168-37.726-25.151-62.877-28.744-1.796 0-3.593 0-5.389 0h-7.186c0 0-1.796 0-1.796 0-5.389 0-12.575 1.796-17.965 1.796-14.372 3.593-26.947 8.982-39.523 17.965-16.168 8.982-28.744 21.558-41.319 34.133-16.168 17.965-30.54 35.93-43.116 55.691-16.168 26.947-30.54 53.895-43.116 82.639-7.186 14.372-14.372 30.54-19.761 48.505 0-1.796 0-1.796 0 0z" />
<glyph unicode="&#xe97a;" d="M501.221 473.151c1.796-1.796 3.593-3.593 3.593-3.593 1.796-1.796 5.389-5.389 7.186-7.186 10.779-14.372 25.151-23.354 41.319-30.54 7.186-3.593 16.168-5.389 25.151-7.186s16.168-1.796 25.151 0c5.389 1.796 10.779 1.796 17.965 3.593 1.796 0 3.593 0 7.186 0 0 0 0-1.796 0-1.796-10.779-14.372-23.354-25.151-39.523-28.744-10.779-3.593-23.354-3.593-34.133 0-12.575 3.593-23.354 8.982-32.337 17.965s-14.372 19.761-17.965 32.337c-1.796 7.186-1.796 16.168-1.796 23.354-1.796 0-1.796 1.796-1.796 1.796z" />
<glyph unicode="&#xe97b;" d="M573.081 518.063c-1.796 0-1.796 0 0 0-10.779-3.593-19.761-5.389-28.744-5.389-12.575 0-25.151 5.389-34.133 14.372-5.389 5.389-8.982 10.779-12.575 17.965 0 0 0 0 0 1.796 0 0 0 0 0 0s1.796 0 1.796 1.796c7.186 5.389 14.372 7.186 23.354 8.982 5.389 1.796 12.575 1.796 17.965 0s10.779-5.389 14.372-8.982c7.186-7.186 10.779-14.372 16.168-23.354 0-3.593 0-5.389 1.796-7.186 0 1.796 0 1.796 0 0z" />
<glyph unicode="&#xe97c;" d="M601.825 507.284c0 1.796 1.796 1.796 0 0 8.982 5.389 17.965 8.982 28.744 10.779 5.389 0 10.779 1.796 14.372 0 7.186-1.796 12.575-5.389 17.965-10.779 7.186-7.186 10.779-14.372 14.372-23.354 0-1.796 0-1.796 1.796-3.593 0 0-1.796 0-1.796 0-8.982-3.593-19.761-5.389-28.744-5.389-7.186 0-14.372 1.796-19.761 7.186-12.575 5.389-19.761 14.372-26.947 25.151 0 0 0 0 0 0z" />
<glyph unicode="&#xe97d;" d="M512-64c282.049 0 512 229.951 512 512s-229.951 512-512 512-512-229.951-512-512 229.951-512 512-512z" />
<glyph unicode="&#xe97e;" d="M314.386 514.47l23.354 14.372c14.372 8.982 35.93 5.389 46.709-8.982 1.796-3.593 7.186-5.389 10.779-1.796 1.796 1.796 3.593 3.593 3.593 5.389s0 3.593-1.796 5.389c-5.389 7.186-7.186 16.168-3.593 23.354 1.796 8.982 7.186 16.168 14.372 19.761l57.488 35.93c14.372 8.982 35.93 5.389 46.709-8.982l174.26-258.695 25.151 14.372c10.779 7.186 14.372 19.761 7.186 30.54l-98.807 147.312c-1.796 3.593-8.982 12.575-10.779 16.168l-98.807 149.109c-7.186 10.779-19.761 12.575-30.54 7.186l-57.488-35.93c-5.389-3.593-8.982-7.186-8.982-14.372-1.796-5.389 0-10.779 3.593-16.168 3.593-3.593 3.593-8.982 1.796-14.372s-3.593-8.982-8.982-10.779c-8.982-5.389-19.761-3.593-26.947 5.389-7.186 10.779-19.761 12.575-30.54 7.186l-57.488-35.93c-10.779-7.186-14.372-19.761-7.186-30.54l26.947-44.912z" />
<glyph unicode="&#xe97f;" d="M698.835 259.368c5.389 3.593 7.186 10.779 3.593 14.372l-98.807 149.109c-1.796 1.796-5.389 8.982-10.779 16.168l-98.807 149.109c-3.593 5.389-10.779 7.186-16.168 3.593l-57.488-35.93c-1.796-1.796-3.593-3.593-5.389-7.186 0-3.593 0-5.389 1.796-8.982 3.593-7.186 5.389-14.372 3.593-21.558s-7.186-14.372-12.575-17.965c-14.372-8.982-32.337-5.389-41.319 8.982-3.593 5.389-10.779 7.186-16.168 3.593l-57.488-35.93c-5.389-3.593-7.186-8.982-3.593-14.372l98.807-147.312c1.796-3.593 8.982-12.575 10.779-16.168l98.807-149.109c1.796-1.796 3.593-3.593 7.186-5.389 3.593 0 5.389 0 8.982 1.796l127.551 79.046 57.488 34.133z" />
</font>
</defs>
</svg>
