<svg id="Ebene_1" data-name="Ebene 1" xmlns="http://www.w3.org/2000/svg" xmlns:xlink="http://www.w3.org/1999/xlink" viewBox="0 0 417 417"><defs><style>.cls-1{fill:none;}.cls-2{clip-path:url(#clip-path);}.cls-3{fill:#fff;}.cls-4{fill:#1d1d1b;}</style><clipPath id="clip-path" transform="translate(0 0)"><rect class="cls-1" width="417" height="417"/></clipPath></defs><title>Logo_neg</title><g class="cls-2"><path class="cls-3" d="M208.5,417C323.65,417,417,323.65,417,208.5S323.65,0,208.5,0,0,93.35,0,208.5,93.35,417,208.5,417" transform="translate(0 0)"/><path class="cls-4" d="M352.64,205a3.49,3.49,0,0,0,.79-2.54V186.87H320.71V142.6a2.84,2.84,0,0,0-3.32-3.33H303.06a2.84,2.84,0,0,0-3.32,3.33v59.88a2.84,2.84,0,0,0,3.32,3.32h47a3.49,3.49,0,0,0,2.54-.78m-64.59,0a3.49,3.49,0,0,0,.78-2.54V191.66a2.84,2.84,0,0,0-3.32-3.32H260v-8h18a2.85,2.85,0,0,0,3.33-3.33v-9.88a2.86,2.86,0,0,0-3.33-3.33H260v-7.12h25.51a2.84,2.84,0,0,0,3.32-3.32V142.6a2.84,2.84,0,0,0-3.32-3.33H242.63a2.85,2.85,0,0,0-3.33,3.33v59.88a3.45,3.45,0,0,0,.79,2.54,3.49,3.49,0,0,0,2.54.78h42.88a3.51,3.51,0,0,0,2.54-.78m-60.81,0a3.45,3.45,0,0,0,.79-2.54V173.92a2.85,2.85,0,0,0-3.33-3.32H210.38a2.85,2.85,0,0,0-3.33,3.32v14.42h-9a4.22,4.22,0,0,1-3.19-1.11,4.78,4.78,0,0,1-1.06-3.42V161.72a4.26,4.26,0,0,1,1.38-3.46,6.57,6.57,0,0,1,4.26-1.16H218.7a2.84,2.84,0,0,0,3.32-3.32V142.6a2.84,2.84,0,0,0-3.32-3.33H195.59q-11.55,0-17.14,4.62t-5.59,14.23V187q0,9.62,5.59,14.23t17.14,4.62H224.7a3.49,3.49,0,0,0,2.54-.78M125.73,160.15a3.88,3.88,0,0,1,1.39-3q1.38-1.25,6.38-1.25c3.32,0,5.45.42,6.37,1.25a3.88,3.88,0,0,1,1.39,3V185a4,4,0,0,1-1.39,3.1c-.92.83-3.05,1.24-6.37,1.24s-5.46-.41-6.38-1.24a4,4,0,0,1-1.39-3.1Zm36.41-3.32a22.45,22.45,0,0,0-1.25-7.72,13.18,13.18,0,0,0-4.43-6,23.27,23.27,0,0,0-8.78-3.88,60.05,60.05,0,0,0-14.18-1.39,60.72,60.72,0,0,0-14.24,1.39,23.26,23.26,0,0,0-8.82,3.88,13.2,13.2,0,0,0-4.44,6,22.69,22.69,0,0,0-1.24,7.72v31.51a22.67,22.67,0,0,0,1.24,7.71,12.94,12.94,0,0,0,4.44,5.92,23.74,23.74,0,0,0,8.82,3.83,60.72,60.72,0,0,0,14.24,1.39,60.05,60.05,0,0,0,14.18-1.39,23.74,23.74,0,0,0,8.78-3.83,12.92,12.92,0,0,0,4.43-5.92,22.43,22.43,0,0,0,1.25-7.71ZM80.59,205.16a4.31,4.31,0,0,0,1.8-2.41l9.06-22.64c.55-1.35,1-2.54,1.39-3.55s.67-2,.92-2.91a17,17,0,0,0,.51-2.92c.09-1,.14-2.26.14-3.74V142.6a3.54,3.54,0,0,0-.79-2.55,3.49,3.49,0,0,0-2.54-.78H76.57a3.49,3.49,0,0,0-2.54.78,3.54,3.54,0,0,0-.79,2.55V168a9.74,9.74,0,0,1-.18,1.85,14.06,14.06,0,0,1-.55,1.94l-4.35,13a2.7,2.7,0,0,1-.64,1.24,1.64,1.64,0,0,1-1.11.33h-1a1.64,1.64,0,0,1-1.11-.33,2.7,2.7,0,0,1-.65-1.24l-4.34-12.94a12.47,12.47,0,0,1-.55-1.94,8.94,8.94,0,0,1-.19-1.85V142.6a3.21,3.21,0,0,0-.92-2.55,4.06,4.06,0,0,0-2.68-.78H40.26a3.52,3.52,0,0,0-2.55.78,3.54,3.54,0,0,0-.78,2.55V167c0,1.48,0,2.73.14,3.74a17,17,0,0,0,.51,2.92c.24.92.55,1.89.92,2.91s.83,2.2,1.39,3.55l9,22.64a4.31,4.31,0,0,0,1.8,2.41,5.91,5.91,0,0,0,2.91.64h24a5.91,5.91,0,0,0,2.91-.64" transform="translate(0 0)"/><path class="cls-4" d="M377.33,233.88c-11.65,17.12-39.6,31.27-49.13,35.74q2.16-8.82,4.08-17.19,1.37-6.08,2.72-11.57a158.92,158.92,0,0,1,6-20.46,15.13,15.13,0,0,0-8.51-2.62,25.86,25.86,0,0,0-2.9.07c-4.75.38-8.12,1.89-10.08,4.53-.36.81-.75,1.82-1.18,3a28.86,28.86,0,0,0-7.92-6.4,21.18,21.18,0,0,0-9.55-2.65,11.25,11.25,0,0,0-6,1.4,19.55,19.55,0,0,0-5.15,4.25,55.62,55.62,0,0,0-9.4,18c-1,3.09-1.9,6.09-2.64,9-1.67,3.14-3.46,6.34-5.45,9.62a87.85,87.85,0,0,1-6.67,9.7q-3.24,4-5.3,3.94c-1.27,0-1.91-1.33-1.93-3.87q.35-10.15,7.54-31.41,3.68-10.46,3.79-13.68a12,12,0,0,0-.1-2.11c10.39-2.09,24.61-7.27,46.79-20,25.5-14.67,51.07-16.83,61.81-5.91,11.1,11.28,5.1,29.79-.87,38.57m-64.78,8q-3,7.17-6.53,14.08a65.45,65.45,0,0,1-5,8.47c-1.59,2.23-2.94,3.32-4,3.29a1.59,1.59,0,0,1-1.56-1.42,10.45,10.45,0,0,1-.27-2.87,50.48,50.48,0,0,1,.87-6.13q.82-4.47,2.25-10a95.34,95.34,0,0,1,4.62-13.65,24.89,24.89,0,0,1,3.56-6.16c1.3-1.55,2.63-2.3,4-2.26,2,.07,4.21,1.72,6.52,4.94q-.93,3.29-4.46,11.76m-72.93-12a113.48,113.48,0,0,0-7.92,13.54q-4.27,8.94-6.93,16t-4.12,11.52c-1.05,0-1.56-1.79-1.55-5.26q.65-9.24,5.92-25.19a130.78,130.78,0,0,1,8.4-20.51,34.41,34.41,0,0,0,12,2.64,55.9,55.9,0,0,0-5.84,7.3M303,291.43q-1,3.85-3.24,10a98.21,98.21,0,0,1-5.47,12.38A43.72,43.72,0,0,1,287.19,324q-4,4.17-8.49,4a5,5,0,0,1-4.47-2.31,10.1,10.1,0,0,1-1.21-5.67,25.35,25.35,0,0,1,2.69-10.65,39.24,39.24,0,0,1,6.44-9.21A61.39,61.39,0,0,1,293,291a96.92,96.92,0,0,1,12.07-7c-.7,2.51-1.39,5-2.09,7.45M170.47,242q-3.25,8-6.82,15.31a61.66,61.66,0,0,1-4.75,8.23c-1.51,2.12-2.79,3.17-3.83,3.13a1.54,1.54,0,0,1-1.53-1.42,12.76,12.76,0,0,1-.23-2.86,124,124,0,0,1,2.21-13.32q1.18-5.66,3-11.64A66.63,66.63,0,0,1,164,225c1.71-3.2,3.51-4.76,5.38-4.69q3.39.12,7.07,5.87-1.57,4.65-6,15.83m-64.82,33.88q-1.66,3.74-4.22,3.65c-1.71-.06-2.55-2-2.53-5.87q.24-6.78,7.41-15.62a38.57,38.57,0,0,1,1.12,10.62,19.45,19.45,0,0,1-1.78,7.22m281.18-88.8c-14-13.93-31.94-12.87-46.71-8.8-19,5.24-39.52,21.75-56,28.78s-43.63,8-50.59,3.74-1.22-16-1.22-16-8-2.56-8.89,10.14a13.9,13.9,0,0,0,2.21,8.87c-5.89.1-9.78,1.61-11.62,4.57a167.72,167.72,0,0,0-9.51,28.49c-.36,1.51-.69,3-1,4.35-2.08,3.71-4.21,7.29-6.47,10.64a51.1,51.1,0,0,1-4.71,5.8c-1.46,1.49-2.69,2.22-3.68,2.18a1.54,1.54,0,0,1-1.61-1.29,10.09,10.09,0,0,1-.24-2.58,61.27,61.27,0,0,1,1.63-11.1q1.67-7.47,4.27-15.57,2.5-7.77,5-14.55,1.92-5.39,3.47-9.22a7,7,0,0,0-3.24-2.1,16.81,16.81,0,0,0-4.85-.83,24.38,24.38,0,0,0-8.56,1.11,8.21,8.21,0,0,0-5.3,4.94c-.24.6-.45,1.16-.64,1.67s-.3.89-.36,1.11a30.24,30.24,0,0,0-8.28-7,21.38,21.38,0,0,0-10.15-3,10,10,0,0,0-5.46,1.38,18.56,18.56,0,0,0-4.82,4.13,45.6,45.6,0,0,0-7.2,12.07c-.9,2.15-1.72,4.34-2.49,6.54a65.39,65.39,0,0,0-17.17,7.08c-.84-3-1.59-6.09-2.25-9.25a41.65,41.65,0,0,1-.81-10c.08-2.25.61-3.88,1.58-4.86a4.27,4.27,0,0,1,3.28-1.42,3.45,3.45,0,0,1,3.2,1.81,7.4,7.4,0,0,1,.82,3.71,11.44,11.44,0,0,1-1.33,5.08q2,.08,3.52-2.61a12.92,12.92,0,0,0,1.66-6.06,8.19,8.19,0,0,0-3.39-7.27,14.64,14.64,0,0,0-8.42-2.82,18.55,18.55,0,0,0-8.71,2,18.19,18.19,0,0,0-7.43,6.86q-3,4.72-3.29,12.41a43.55,43.55,0,0,0,.88,10.49q1.05,5.13,2.46,10.05c.29,1,.56,2,.8,3q-12,10.83-12.35,22.06,0,5.3,2.7,7.95a10.47,10.47,0,0,0,7.58,3.24,20.29,20.29,0,0,0,15.69-6.44q6.69-6.75,7.09-18.4a41,41,0,0,0-.67-9.12q-.78-3.66-1.73-7.25a91.79,91.79,0,0,1,15.62-8.38q-1.45,4.4-2.58,8.91c-1.15,4.6-2,8.78-2.63,12.57a77,77,0,0,0-1,8.64,22.32,22.32,0,0,0,.56,5.19,14.33,14.33,0,0,0,2.62,5.68,10.86,10.86,0,0,0,3.53,2.85,12.45,12.45,0,0,0,5.42,1.26c3,.11,5.86-1.12,8.65-3.66a44.23,44.23,0,0,0,8.82-11.19A86.38,86.38,0,0,0,168,256.61a75.5,75.5,0,0,0-1.59,12.11,22.85,22.85,0,0,0,.78,6.31,12.33,12.33,0,0,0,3.51,6q2.64,2.53,7.76,2.71a11.55,11.55,0,0,0,7.29-2.56,36.6,36.6,0,0,0,7.07-7.07,79.35,79.35,0,0,0,6.41-9.66q1.35-2.37,2.56-4.68a78.09,78.09,0,0,0-1.18,10.19q-.24,6.85,2.85,10.69a12.52,12.52,0,0,0,9.53,4.3c2.92.1,7.38-.06,10-2.13s3.84-11.45,6.86-18.79q2.71-6.68,5.57-12.79,1.95-3.9,4-7.63,5-9.42,9.2-12.5-10,26.2-10.5,40.16-.22,6.43,2.86,10.52,3.17,4.25,9.19,4.45,4.62.17,9.24-4.1a54.77,54.77,0,0,0,8.72-10.65,117.32,117.32,0,0,0,7.33-13.18c.21-.46.4-.89.61-1.34a77.88,77.88,0,0,0-1.24,9.71,23.47,23.47,0,0,0,.67,5.69,12.73,12.73,0,0,0,3.23,6,10.87,10.87,0,0,0,3.35,2.27,12.81,12.81,0,0,0,4.8,1,12.54,12.54,0,0,0,7.57-2.3,29,29,0,0,0,6.72-6.55,91.07,91.07,0,0,0,10.59-19.31q-.6,3-1.19,5.91-2.43,12.31-4.06,19.13-17.73,7.89-28,16.64-13.89,12-14.35,24.88-.27,7.85,4,12.71a14.76,14.76,0,0,0,11.06,5.1q9.51.35,16.34-3.68a38.86,38.86,0,0,0,11.7-10.64,69.6,69.6,0,0,0,7.61-13q3.18-7.09,5.59-14.2,3.4-10.17,6.24-20.89c26.72-9.87,52.48-25.54,62.59-45.47,3.08-6.08,11.72-28.65-2.5-42.84" transform="translate(0 0)"/></g></svg>